<svg width="80" height="80" viewBox="0 0 80 80" fill="none" xmlns="http://www.w3.org/2000/svg">
<path fill-rule="evenodd" clip-rule="evenodd" d="M40 0C17.92 0 0 17.92 0 40C0 62.08 17.92 80 40 80C62.08 80 80 62.08 80 40C80 17.92 62.08 0 40 0ZM40 12C46.64 12 52 17.36 52 24C52 30.64 46.64 36 40 36C33.36 36 28 30.64 28 24C28 17.36 33.36 12 40 12ZM16 55.9201C21.16 63.6801 30 68.8001 40 68.8001C50 68.8001 58.84 63.6801 64 55.9201C63.88 47.9601 47.96 43.6001 40 43.6001C32 43.6001 16.12 47.9601 16 55.9201Z" fill="#3D495C"/>
</svg>
